# xmcd CD database file
#
# Track frame offsets:
#	150
#	10282
#	24229
#	35191
#	48226
#	57690
#	71376
#	82188
#	93579
#	104849
#	120693
#	131853
#	144096
#	156938
#	171942
#	183947
#	196169
#	209779
#	220557
#	230086
#	243191
#	255303
#	271739
#	284435
#
# Disc length: 3960 seconds
#
# Revision: 1
# Processed by: cddbd v1.5.1PL2 Copyright (c) Steve Scherf et al.
# Submitted via: CDex 1.51
#
DISCID=660f7618
DTITLE=Brenda Lee - This Is... Brenda - Emotions
DYEAR=2005
DGENRE=Vocal
TTITLE0=When My Dreamboat Comes Home
TTITLE1=I Want To Be Wanted
TTITLE2=Just A Little
TTITLE3=Pretend
TTITLE4=Love and Learn
TTITLE5=Teach Me Tonight
TTITLE6=Hallelujah, I Love Him So
TTITLE7=Walking To New Orleans
TTITLE8=Blueberry Hill
TTITLE9=We Three (My Echo, My Shadow And Me)
TTITLE10=Build A Big Fence
TTITLE11=If I Didn't Care
TTITLE12=Emotions
TTITLE13=Just Another Lie
TTITLE14=If You Love Me (Really Love Me)
TTITLE15=Crazy Talk
TTITLE16=When I Fall In Love
TTITLE17=Around The World
TTITLE18=Swanee River Rock
TTITLE19=Will You Still Love Me Tomorrow
TTITLE20=I'm Learning About Love
TTITLE21=Goergia On My Mind
TTITLE22=Cry
TTITLE23=I'm In The Mood For Love
EXTD=YEAR: 2005
EXTT0=
EXTT1=
EXTT2=
EXTT3=
EXTT4=
EXTT5=
EXTT6=
EXTT7=
EXTT8=
EXTT9=
EXTT10=
EXTT11=
EXTT12=
EXTT13=
EXTT14=
EXTT15=
EXTT16=
EXTT17=
EXTT18=
EXTT19=
EXTT20=
EXTT21=
EXTT22=
EXTT23=
PLAYORDER=
